<?xml version="1.0" standalone="no"?>
<!DOCTYPE svg PUBLIC "-//W3C//DTD SVG 20010904//EN"
 "http://www.w3.org/TR/2001/REC-SVG-20010904/DTD/svg10.dtd">
<svg version="1.0" xmlns="http://www.w3.org/2000/svg"
 width="523.000000pt" height="511.000000pt" viewBox="0 0 523.000000 511.000000"
 preserveAspectRatio="xMidYMid meet">

<g transform="translate(0.000000,511.000000) scale(0.100000,-0.100000)"
fill="#000000" stroke="none">
<path d="M2450 4833 c-78 -8 -257 -46 -334 -70 -346 -108 -654 -327 -872 -618
-80 -107 -94 -130 -163 -270 -90 -182 -141 -347 -167 -548 -13 -99 -15 -233
-12 -835 4 -641 6 -727 22 -812 63 -329 214 -638 425 -865 260 -280 567 -455
943 -537 91 -20 132 -22 348 -23 219 0 256 3 350 23 542 118 969 447 1213 932
62 124 112 266 148 425 23 99 23 109 27 850 2 523 0 778 -8 843 -40 321 -177
635 -389 887 -157 188 -301 304 -536 435 -140 78 -406 159 -590 180 -85 9
-328 11 -405 3z m-506 -1026 c24 -24 29 -44 176 -657 38 -162 74 -308 79 -325
5 -16 12 -45 16 -62 4 -18 11 -33 16 -33 5 0 9 2 9 4 0 3 20 85 45 183 24 98
78 315 120 483 92 372 102 408 125 420 10 6 84 10 163 10 112 0 146 -3 150
-13 8 -21 -5 -35 -38 -42 -73 -16 -93 -26 -99 -49 -3 -13 -2 -111 3 -217 6
-107 15 -390 22 -629 7 -278 16 -444 23 -460 9 -20 23 -27 65 -35 59 -12 88
-38 61 -55 -8 -5 -106 -10 -218 -10 -172 0 -204 2 -208 15 -8 21 14 45 41 45
33 0 83 20 89 35 5 15 -24 1227 -30 1234 -2 2 -7 2 -10 -2 -5 -5 -197 -768
-250 -992 -94 -400 -110 -407 -189 -80 -26 110 -72 297 -101 415 -172 702
-168 687 -177 640 -3 -14 -10 -191 -17 -395 -6 -203 -13 -464 -17 -578 -6
-224 -3 -245 44 -266 13 -6 32 -11 42 -11 9 0 26 -6 36 -14 17 -12 17 -16 6
-30 -12 -14 -36 -16 -180 -14 -162 3 -166 4 -169 25 -3 22 0 24 63 38 37 8 54
22 67 55 10 24 28 453 43 1030 9 299 13 280 -73 300 -55 13 -67 22 -58 45 4
12 34 15 156 15 144 0 152 -1 174 -23z m1720 10 c15 -11 19 -40 28 -200 6
-102 8 -193 4 -202 -7 -21 -43 -19 -54 3 -5 9 -12 39 -16 66 -12 98 -38 158
-91 213 -33 34 -63 55 -90 62 -85 23 -181 6 -204 -38 -8 -14 -10 -111 -9 -298
l3 -278 67 0 c89 0 110 20 137 129 23 90 33 106 59 90 15 -10 17 -37 20 -250
1 -131 0 -249 -3 -261 -7 -28 -40 -31 -54 -5 -5 9 -14 44 -21 77 -24 117 -52
145 -147 145 l-63 0 0 -325 0 -325 23 -14 c12 -8 48 -18 80 -21 65 -8 95 -28
76 -51 -18 -22 -467 -21 -475 1 -10 24 13 42 61 50 81 12 75 -42 75 694 0 528
-3 661 -13 669 -7 6 -32 14 -55 18 -52 8 -77 26 -69 48 6 14 41 16 360 16 273
0 357 -3 371 -13z m-421 -1864 c-331 -2 -875 -2 -1210 0 -334 1 -63 2 602 2
666 0 939 -1 608 -2z m-772 -315 c0 -13 1 -47 2 -75 1 -29 4 -53 7 -53 3 0 22
34 43 75 31 64 41 75 62 75 24 0 35 -15 16 -22 -12 -4 -52 -194 -45 -213 5
-11 -2 -15 -25 -15 -17 0 -31 5 -31 10 0 6 4 10 8 10 9 0 46 150 39 157 -2 2
-22 -35 -43 -82 -21 -47 -42 -85 -46 -85 -5 0 -9 21 -10 48 -2 44 -4 75 -8
112 -1 8 -10 -19 -21 -60 -11 -41 -18 -82 -16 -92 4 -14 -1 -18 -19 -18 -25 0
-30 9 -15 25 17 19 63 199 52 203 -19 6 -1 22 25 22 18 0 24 -6 25 -22z m204
1 c0 -7 -8 -15 -17 -17 -18 -3 -25 18 -11 32 10 10 28 1 28 -15z m-18 -57 c9
-6 9 -21 -2 -67 -19 -79 -18 -81 5 -54 22 27 25 22 9 -15 -7 -14 -19 -28 -27
-31 -29 -11 -35 11 -19 79 8 36 11 66 7 66 -5 0 -12 -9 -15 -20 -4 -11 -10
-18 -15 -15 -12 7 -1 37 19 52 19 15 22 15 38 5z m101 -4 c9 -9 15 -9 24 0 19
19 38 14 38 -9 0 -15 -5 -19 -19 -14 -15 4 -22 -4 -38 -42 -11 -27 -23 -60
-27 -75 -6 -28 -20 -36 -30 -19 -3 4 1 34 9 65 20 75 19 86 -5 56 -22 -28 -26
-21 -9 13 20 36 38 44 57 25z m192 4 c0 -2 -7 -31 -16 -64 -14 -56 -13 -109 1
-60 4 12 12 22 17 22 6 0 7 -7 4 -16 -3 -9 -6 -20 -6 -24 0 -5 -10 -15 -22
-21 -18 -9 -24 -8 -34 6 -11 15 -14 15 -36 1 -27 -18 -42 -11 -51 23 -7 29 27
106 56 126 18 13 87 19 87 7z m-1151 -269 c0 -10 -4 -27 -9 -38 -7 -18 -8 -18
-15 8 -12 44 -46 33 -61 -20 -11 -35 -10 -43 1 -43 7 0 15 7 19 15 7 18 27 20
22 3 -3 -7 -7 -25 -10 -40 -7 -30 -26 -39 -26 -12 0 9 -6 14 -12 12 -17 -6
-34 -91 -19 -96 20 -7 0 -22 -29 -22 -31 0 -48 15 -27 23 15 6 51 143 51 195
l0 32 58 0 c49 0 58 -3 57 -17z m297 -11 c-2 -10 -7 -33 -11 -52 -5 -30 -4
-33 7 -19 7 9 23 19 36 23 32 11 38 -16 18 -78 -21 -68 -20 -77 4 -46 21 26
27 12 10 -21 -6 -11 -21 -19 -35 -19 -30 0 -32 17 -9 84 31 92 -12 67 -51 -30
-46 -113 -56 -71 -18 79 8 31 12 66 8 76 -4 14 0 21 12 23 25 6 35 -1 29 -20z
m169 7 c0 -7 -8 -15 -17 -17 -18 -3 -25 18 -11 32 10 10 28 1 28 -15z m605 11
c0 -3 -11 -48 -25 -100 -30 -115 -30 -122 -5 -90 11 14 20 20 20 14 0 -21 -40
-63 -55 -57 -20 7 -19 25 5 114 11 41 20 80 20 87 0 21 -17 13 -25 -10 -6 -22
-7 -22 -17 5 -15 42 -50 33 -61 -16 -10 -43 -2 -60 17 -34 20 26 28 20 21 -15
-10 -45 -16 -53 -27 -34 -15 27 -25 18 -38 -31 -8 -33 -8 -49 -1 -51 24 -8 9
-22 -24 -22 -32 0 -48 14 -25 22 12 4 44 141 44 191 l0 38 88 -3 c48 -2 88 -5
88 -8z m-973 -74 c2 -1 -4 -31 -13 -65 -16 -65 -14 -88 6 -52 15 28 36 26 44
-4 4 -14 13 -25 22 -25 22 0 29 28 10 49 -9 10 -21 32 -25 49 -11 37 13 66 51
60 18 -2 23 -9 23 -30 0 -16 -4 -28 -10 -28 -5 0 -10 7 -10 15 0 8 -6 20 -12
26 -17 17 -30 -18 -15 -40 34 -47 42 -72 32 -90 -13 -25 -69 -38 -81 -20 -6
10 -13 10 -31 2 -28 -12 -48 -7 -48 15 0 13 -4 11 -20 -6 -12 -12 -24 -22 -28
-22 -54 1 -35 116 28 168 13 10 66 9 77 -2z m356 0 c3 -8 -1 -38 -9 -68 -19
-72 -18 -75 11 -44 14 15 25 32 25 38 0 24 43 78 66 84 73 19 85 -96 17 -158
-32 -29 -82 -10 -83 32 0 9 -7 4 -17 -12 -19 -30 -39 -42 -55 -32 -10 6 -8 38
7 114 7 34 7 34 -9 15 -17 -20 -17 -20 -10 5 10 38 46 55 57 26z m234 -6 c5
-19 6 -19 34 2 42 31 56 14 41 -49 -6 -27 -14 -57 -18 -68 -7 -20 -7 -20 14
-1 18 15 22 16 22 4 0 -8 -9 -23 -20 -33 -18 -16 -22 -17 -35 -4 -12 11 -13
22 -5 49 17 57 21 90 11 90 -14 0 -28 -22 -51 -80 -39 -99 -62 -96 -36 4 19
79 20 87 1 62 -21 -28 -31 -11 -11 19 20 30 46 33 53 5z m520 6 c2 -2 -3 -31
-11 -64 -20 -77 -20 -82 4 -52 19 24 20 24 20 4 0 -11 -9 -29 -21 -40 -21 -19
-21 -18 -39 4 -11 13 -21 18 -25 12 -14 -22 -43 -30 -58 -15 -23 22 -3 92 36
133 26 27 37 32 61 28 16 -4 31 -8 33 -10z m82 5 c12 -8 11 -19 -3 -76 -9 -37
-14 -70 -11 -73 3 -3 18 6 33 21 23 24 27 35 26 83 -1 37 2 54 10 51 20 -7 18
-67 -5 -113 -25 -53 -60 -74 -85 -54 -16 14 -16 16 5 105 9 36 8 38 -5 21 -20
-29 -29 -12 -9 18 19 28 23 30 44 17z m189 -3 c26 -32 17 -100 -17 -137 -76
-81 -137 33 -64 119 26 31 63 39 81 18z m95 -3 c4 -8 -1 -37 -9 -65 -8 -28
-14 -56 -12 -62 6 -17 43 41 61 92 15 46 37 65 37 33 0 -10 -6 -42 -14 -71
-13 -51 -7 -69 13 -34 9 15 10 15 11 1 0 -9 -8 -27 -19 -40 -16 -20 -21 -22
-35 -10 -9 8 -14 21 -11 29 3 7 -9 2 -27 -13 -29 -24 -33 -25 -44 -11 -9 14
-8 29 6 76 17 57 12 80 -9 43 -5 -10 -12 -15 -15 -12 -9 9 33 59 49 59 7 0 15
-7 18 -15z m166 6 c9 -6 21 -5 32 2 14 9 21 9 30 0 16 -16 1 -35 -21 -28 -18
6 -35 -27 -64 -122 -4 -13 -11 -23 -16 -23 -13 0 -18 23 -10 40 5 8 11 38 14
65 6 46 6 48 -7 26 -8 -13 -17 -19 -20 -14 -7 11 28 63 41 63 4 0 13 -4 21 -9z
m149 0 c9 -5 11 -17 6 -35 -3 -15 -8 -25 -11 -22 -3 2 -4 6 -2 8 6 8 -23 48
-32 43 -15 -10 -10 -38 11 -65 26 -34 25 -66 -4 -85 -32 -21 -77 -6 -69 25 8
28 23 36 23 10 0 -24 26 -38 42 -22 8 8 4 22 -15 51 -32 47 -32 50 -11 79 16
23 39 28 62 13z"/>
<path d="M2864 1545 c-22 -33 -32 -109 -13 -103 16 5 58 85 59 111 0 25 -27
21 -46 -8z"/>
<path d="M1833 1232 c-16 -10 -43 -75 -43 -103 0 -32 23 -18 48 31 31 62 29
94 -5 72z"/>
<path d="M2326 1208 c-21 -41 -21 -108 -1 -108 22 0 45 42 50 93 4 41 2 47
-14 47 -12 0 -26 -13 -35 -32z"/>
<path d="M2943 1232 c-28 -17 -56 -122 -33 -122 14 0 60 83 60 108 0 23 -7 27
-27 14z"/>
<path d="M3222 1227 c-32 -38 -38 -127 -9 -127 25 0 60 83 50 120 -6 23 -25
26 -41 7z"/>
<path d="M5125 179 c-42 -12 -85 -59 -96 -105 -17 -77 -21 -74 96 -74 l105 0
0 95 0 95 -37 -1 c-21 0 -52 -5 -68 -10z"/>
</g>
</svg>
